<svg width="1213" height="517" viewBox="0 0 1213 517" fill="none" xmlns="http://www.w3.org/2000/svg">
<rect width="20.4967" height="19.4804" transform="matrix(1 0 0 -1 0 193.48)" fill="white" fill-opacity="0.15"/>
<rect width="20.4967" height="19.4804" transform="matrix(1 0 0 -1 360.742 33.1168)" fill="white" fill-opacity="0.15"/>
<rect x="0.75" y="-0.75" width="18.9967" height="17.9804" transform="matrix(1 0 0 -1 1164 275.98)" stroke="white" stroke-opacity="0.15" stroke-width="1.5"/>
<rect x="0.75" y="-0.75" width="18.9967" height="17.9804" transform="matrix(1 0 0 -1 211.115 58.8893)" stroke="white" stroke-opacity="0.15" stroke-width="1.5"/>
<rect x="0.75" y="-0.75" width="18.9967" height="17.9804" transform="matrix(1 0 0 -1 1105 39.9803)" stroke="white" stroke-opacity="0.15" stroke-width="1.5"/>
<rect width="20.4967" height="19.4804" transform="matrix(1 0 0 -1 14.3457 496.751)" fill="white" fill-opacity="0.15"/>
<rect width="14.3477" height="13.6363" transform="matrix(1 0 0 -1 1100 130.636)" fill="white" fill-opacity="0.15"/>
<rect width="14.3477" height="13.6363" transform="matrix(1 0 0 -1 6 305.636)" fill="white" fill-opacity="0.15"/>
<rect width="14.3477" height="13.6363" transform="matrix(1 0 0 -1 604.65 13.6364)" fill="white" fill-opacity="0.15"/>
<rect width="30.745" height="7.79217" transform="matrix(1 0 0 -1 381 72.792)" fill="white" fill-opacity="0.1"/>
<rect width="30.745" height="7.79217" transform="matrix(1 0 0 -1 996 15.792)" fill="white" fill-opacity="0.1"/>
<rect width="30.745" height="7.79217" transform="matrix(1 0 0 -1 340 157.792)" fill="white" fill-opacity="0.1"/>
<rect width="30.745" height="7.79217" transform="matrix(1 0 0 -1 20 17.792)" fill="white" fill-opacity="0.1"/>
<rect width="29.2206" height="8.19868" transform="matrix(0 1 1 0 983 478)" fill="white" fill-opacity="0.15"/>
<rect width="30.745" height="7.79217" transform="matrix(1 0 0 -1 473 437.792)" fill="white" fill-opacity="0.15"/>
<rect width="14.3477" height="13.6363" transform="matrix(1 0 0 -1 1174.46 467.53)" fill="white" fill-opacity="0.15"/>
<rect width="14.3477" height="13.6363" transform="matrix(1 0 0 -1 681 52.6362)" fill="white" fill-opacity="0.15"/>
<rect width="14.3477" height="13.6363" transform="matrix(1 0 0 -1 834 503.636)" fill="white" fill-opacity="0.15"/>
<rect width="10.2483" height="9.74022" transform="matrix(1 0 0 -1 53 429.74)" fill="white" fill-opacity="0.15"/>
<rect width="10.2483" height="9.74022" transform="matrix(1 0 0 -1 756 447.74)" fill="white" fill-opacity="0.15"/>
<rect width="10.2483" height="9.74022" transform="matrix(1 0 0 -1 523 74.7401)" fill="white" fill-opacity="0.1"/>
<rect width="14.3477" height="13.6363" transform="matrix(1 0 0 -1 957 64.6361)" fill="white" fill-opacity="0.15"/>
<rect width="14.3477" height="13.6363" transform="matrix(1 0 0 -1 155 130.636)" fill="white" fill-opacity="0.15"/>
<rect width="30.745" height="29.2206" transform="matrix(1 0 0 -1 161.924 488.959)" fill="white" fill-opacity="0.1"/>
<rect width="30.745" height="29.2206" transform="matrix(1 0 0 -1 604 459.22)" fill="white" fill-opacity="0.1"/>
<rect x="0.75" y="-0.75" width="29.245" height="27.7206" transform="matrix(1 0 0 -1 275 421.72)" stroke="white" stroke-opacity="0.1" stroke-width="1.5"/>
<rect x="0.75" y="-0.75" width="29.245" height="27.7206" transform="matrix(1 0 0 -1 759 291.72)" stroke="white" stroke-opacity="0.1" stroke-width="1.5"/>
<rect x="0.75" y="-0.75" width="29.245" height="27.7206" transform="matrix(1 0 0 -1 0 82.2657)" stroke="white" stroke-opacity="0.1" stroke-width="1.5"/>
<rect x="0.75" y="-0.75" width="29.245" height="27.7206" transform="matrix(1 0 0 -1 1084.28 499.147)" stroke="white" stroke-opacity="0.1" stroke-width="1.5"/>
<rect width="20.4967" height="19.4804" transform="matrix(1 0 0 -1 320 487.48)" fill="white" fill-opacity="0.15"/>
<rect width="20.4967" height="19.4804" transform="matrix(1 0 0 -1 836.266 37.0128)" fill="white" fill-opacity="0.15"/>
<rect width="20.4967" height="19.4804" transform="matrix(1 0 0 -1 84 104.48)" fill="white" fill-opacity="0.1"/>
<rect width="20.4967" height="19.4804" transform="matrix(1 0 0 -1 563 171.48)" fill="white" fill-opacity="0.1"/>
<rect width="20.4967" height="19.4804" transform="matrix(1 0 0 -1 484 109.48)" fill="white" fill-opacity="0.05"/>
<rect width="20.4967" height="19.4804" transform="matrix(1 0 0 -1 674.342 516.231)" fill="white" fill-opacity="0.05"/>
<rect width="20.4967" height="19.4804" transform="matrix(1 0 0 -1 1184 198.48)" fill="white" fill-opacity="0.05"/>
<rect width="14.3477" height="13.6363" transform="matrix(1 0 0 -1 268 104.636)" fill="white" fill-opacity="0.05"/>
<rect width="14.3477" height="13.6363" transform="matrix(1 0 0 -1 197 158.636)" fill="white" fill-opacity="0.05"/>
<rect width="30.745" height="7.79217" transform="matrix(1 0 0 -1 1182 382.792)" fill="white" fill-opacity="0.05"/>
<rect width="29.2206" height="8.19868" transform="matrix(0 1 1 0 143 7.99976)" fill="white" fill-opacity="0.05"/>
<rect width="14.3477" height="13.6363" transform="matrix(1 0 0 -1 459 481.636)" fill="white" fill-opacity="0.05"/>
<rect width="12.298" height="11.6883" transform="matrix(1 0 0 -1 498.07 27.2725)" fill="white" fill-opacity="0.05"/>
<rect width="20.4967" height="19.4804" transform="matrix(1 0 0 -1 760 48.4802)" fill="white" fill-opacity="0.05"/>
<rect width="20.4967" height="19.4804" transform="matrix(1 0 0 -1 770 178.48)" fill="white" fill-opacity="0.05"/>
<rect width="30.745" height="29.2206" transform="matrix(1 0 0 -1 810 423.22)" fill="white" fill-opacity="0.05"/>
<rect width="30.745" height="29.2206" transform="matrix(1 0 0 -1 1170 83.2205)" fill="white" fill-opacity="0.15"/>
</svg>
