<svg width="592" height="524" viewBox="0 0 592 524" fill="none" xmlns="http://www.w3.org/2000/svg">
<path d="M380.342 434.527L326.521 392.654L276.276 405.224L210.483 365.146L149.474 355.577L110.603 304.137L130.935 215.619L208.091 151.62L308.569 126.503L426.401 165.972L484.42 232.961L504.752 298.754L479.037 361.004H456.889L446.124 378.346L402.458 374.16L393.51 393.862L406.666 434.527H380.342Z" fill="#42438A"/>
<path d="M388.229 361.059H365.593V383.684H388.229V361.059Z" fill="#E6E6E6"/>
<path d="M275.778 224.686H255.545V244.919H275.778V224.686Z" fill="#E6E6E6"/>
<path d="M221.857 271.045H207.593V285.342H221.857V271.045Z" fill="#E6E6E6"/>
<path d="M427.649 218.487H413.341V232.795H427.649V218.487Z" fill="#E6E6E6"/>
<path d="M354.824 215.264H344.458V225.641H354.824V215.264Z" fill="#E6E6E6"/>
<path d="M190.847 223.493H168.188V246.129H190.847V223.493Z" fill="#E6E6E6"/>
<path d="M179.506 281.444H165.198V295.752H179.506V281.444Z" fill="white"/>
<path d="M264.423 208.453H284.302V196.182H298.034V167.068H268.909V196.182H282.641V206.792H264.423V200.424H250.115V214.821H264.423V208.453ZM270.581 168.729H296.384V194.521H270.581V168.729Z" fill="white"/>
<path d="M333.174 164.574V150.277H318.866V156.59H307.293V202.56H290.228V238.341H326.02V202.56H308.954V158.251H318.866V164.574H333.174Z" fill="white"/>
<path d="M344.463 177.8H336.811V185.452H344.463V177.8Z" fill="white"/>
<path d="M293.385 332.33H305.412V320.303H293.385V332.33ZM295.046 321.964H303.806V330.669H295.101L295.046 321.964Z" fill="white"/>
<path d="M377.737 223.349H391.469V194.223H377.737V182.451H444.25V180.79H344.458V182.451H348.81V215.264H350.471V182.451H376.075V194.223H362.343V223.349H376.075V259.307H369.752V273.615H384.06V259.307H377.737V223.349ZM364.004 221.687V195.884H389.808V221.687H377.737V221.466H376.075V221.654L364.004 221.687Z" fill="white"/>
<path d="M482.97 226.471V224.788H427.653V226.449H440.555V251.92H426.812V266.394H384.064V268.055H426.812V281.046H440.544V325.51H410.853V315.022H388.228V337.636H410.853V327.149H442.238V281.024H455.971V251.898H442.238V226.427L482.97 226.471ZM454.276 253.581V279.385H428.473V253.581H454.276Z" fill="white"/>
<path d="M268.624 271.045V278.388H239.221V268.033H244.415V256.006H232.377V268.033H237.56V278.388H221.856V280.049H268.579V285.343H282.888V271.045H268.624ZM234.038 266.372V257.668H242.754V266.372H234.038Z" fill="white"/>
<path d="M165.199 284.522H114.91V286.184H165.199V284.522Z" fill="white"/>
<path d="M377.74 383.681H376.079V431.843H377.74V383.681Z" fill="white"/>
<path d="M168.201 233.98H126.528V235.642H168.201V233.98Z" fill="white"/>
<path d="M211.411 212.338H225.176V183.213H211.444V150.277H209.783V183.213H196.051V212.338H209.783V233.978H190.846V235.639H211.433L211.411 212.338ZM197.679 184.918H223.482V210.721H197.679V184.918Z" fill="white"/>
<path d="M333.133 284.522V307.546H316.112V280.048H324.705V261.222H305.879V280.048H314.484V307.546H282.146V297.059H259.51V307.546H211.447V296.228H187.128V320.525H211.414V309.207H259.51V319.695H269.998V351.81H233.209V345.166H218.258V360.116H233.209V353.472H271.626V319.695H282.113V309.207H314.45V350.936H305.779V371.18H326.023V350.936H316.112V309.207H333.133V321.965H370.587V284.522H333.133ZM209.753 318.919H188.789V297.878H209.753V318.919ZM307.507 278.442V262.938H323.011V278.442H307.507ZM368.926 320.359H334.816V286.183H368.926V320.359Z" fill="white"/>
<path fill-rule="evenodd" clip-rule="evenodd" d="M204.165 46.2228L201.733 45.5776C200.939 45.3791 200.443 44.6346 200.393 43.8406C200.344 42.9969 200.244 42.1532 200.046 41.3591C199.897 40.565 200.195 39.7213 200.89 39.3243L203.073 38.0836C203.917 37.5873 204.215 36.4954 203.719 35.6517L201.138 31.1851C200.642 30.3414 199.55 30.0436 198.706 30.5399L196.522 31.7806C195.827 32.1777 194.934 32.0784 194.339 31.5325C193.693 30.9865 193.048 30.4902 192.353 30.0436C191.659 29.5969 191.311 28.7532 191.51 28.0088L192.155 25.5273C192.403 24.5844 191.857 23.5918 190.914 23.3436L185.902 22.0036C184.959 21.7555 183.966 22.3014 183.718 23.2444L183.023 25.7258C182.825 26.5199 182.08 27.0162 181.286 27.0658C180.442 27.1154 179.599 27.2147 178.755 27.4132C177.961 27.5621 177.117 27.2643 176.72 26.5695L175.43 24.3362C174.933 23.4925 173.842 23.1947 172.998 23.691L168.531 26.2718C167.688 26.768 167.39 27.8599 167.886 28.7036L169.226 30.9865C169.623 31.6814 169.524 32.5747 168.978 33.1702C168.432 33.7658 167.936 34.411 167.489 35.1058C167.042 35.8006 166.248 36.148 165.454 35.8999L162.874 35.2051C161.931 34.9569 160.938 35.5028 160.69 36.4458L159.35 41.4584C159.102 42.4013 159.648 43.3939 160.591 43.6421L163.122 44.3369C163.916 44.5354 164.462 45.2798 164.462 46.0739C164.511 46.9176 164.611 47.7117 164.759 48.5554C164.908 49.3494 164.611 50.1931 163.866 50.5902L161.583 51.9302C160.739 52.4265 160.442 53.5183 160.938 54.362L163.519 58.8287C164.015 59.6724 165.107 59.9701 165.951 59.4738L168.184 58.1835C168.879 57.7864 169.772 57.9353 170.368 58.4316C171.013 58.9775 171.658 59.5235 172.353 59.9701C173.048 60.4168 173.395 61.2109 173.196 62.0049L172.551 64.4864C172.303 65.4294 172.849 66.422 173.792 66.6701L178.805 68.0101C179.748 68.2583 180.74 67.7123 180.988 66.7694L181.633 64.2879C181.832 63.4938 182.576 62.9479 183.37 62.9479C184.214 62.8983 185.008 62.799 185.852 62.6501C186.646 62.5012 187.49 62.799 187.887 63.5434L189.127 65.7271C189.624 66.5709 190.716 66.8686 191.559 66.3723L196.026 63.7916C196.87 63.2953 197.167 62.2035 196.671 61.3598L195.43 59.1761C195.033 58.4812 195.182 57.5879 195.679 56.9924C196.274 56.3472 196.77 55.6524 197.267 54.9079C197.713 54.2131 198.507 53.8657 199.302 54.0642L201.684 54.7094C202.627 54.9576 203.619 54.4116 203.867 53.4687L205.05 49.0448C205.155 48.6533 205.34 48.2781 205.379 47.8748C205.455 47.1011 204.922 46.422 204.165 46.2228ZM187.639 53.965C182.676 56.8435 176.323 55.1561 173.445 50.1435C170.566 45.1806 172.253 38.828 177.266 35.9495C182.229 33.071 188.582 34.7584 191.46 39.771C194.289 44.7339 192.602 51.0865 187.639 53.965Z" fill="#4C4D9E"/>
<circle cx="183.057" cy="45.7145" r="34.4929" stroke="#4C4D9E" stroke-width="0.5"/>
<circle cx="183.058" cy="45.7143" r="45.2143" stroke="#4C4D9E"/>
<circle cx="507.265" cy="111.808" r="29.0071" stroke="#4C4D9E" stroke-width="0.5"/>
<circle cx="507.264" cy="111.808" r="37.9" stroke="#4C4D9E"/>
<path d="M513.951 102.436C513.951 106.349 510.778 109.522 506.865 109.522C502.952 109.522 499.78 106.349 499.78 102.436C499.78 98.5231 502.952 95.3508 506.865 95.3508C510.778 95.3508 513.951 98.5231 513.951 102.436Z" fill="#4C4D9E"/>
<path d="M494.466 121.921C494.466 116.051 499.224 111.293 505.094 111.293H508.637C514.506 111.293 519.265 116.051 519.265 121.921C519.265 125.443 516.41 128.298 512.888 128.298H500.843C497.321 128.298 494.466 125.443 494.466 121.921Z" fill="#4C4D9E"/>
<rect x="181.596" y="461.157" width="43.8851" height="8.66152" fill="#4C4D9E"/>
<rect x="181.596" y="473.283" width="43.8851" height="8.66152" fill="#4C4D9E"/>
<rect x="181.596" y="485.411" width="43.8851" height="8.66152" fill="#4C4D9E"/>
<rect x="199.147" y="463.753" width="7.31418" height="3.46461" fill="#FCFCFE"/>
<rect x="199.147" y="463.753" width="7.31418" height="3.46461" fill="#FCFCFE"/>
<rect x="199.147" y="475.88" width="7.31418" height="3.46461" fill="#FCFCFE"/>
<rect x="199.147" y="488.009" width="7.31418" height="3.46461" fill="#FCFCFE"/>
<circle cx="203.537" cy="477.614" r="34.4929" stroke="#4C4D9E" stroke-width="0.5"/>
<circle cx="203.538" cy="477.613" r="45.2143" stroke="#4C4D9E"/>
<path d="M213.592 433.727L238.278 387.099" stroke="#4C4D9E"/>
<path d="M497.206 147.466L454.656 200.096" stroke="#4C4D9E"/>
<path d="M475.968 356.127L514.158 398.227" stroke="#4C4D9E"/>
<path d="M74.3242 342.368L128.987 326.785" stroke="#4C4D9E"/>
<path d="M201.28 85.248L234.432 146.816" stroke="#4C4D9E"/>
<circle cx="543.778" cy="434.205" r="35.9158" stroke="#4C4D9E" stroke-width="0.5"/>
<circle cx="544.64" cy="433.344" r="46.86" stroke="#4C4D9E"/>
<path fill-rule="evenodd" clip-rule="evenodd" d="M546.393 410.34C546.454 410.105 546.486 409.858 546.486 409.603C546.486 407.973 545.164 406.651 543.534 406.651C541.903 406.651 540.582 407.973 540.582 409.603C540.582 409.873 540.618 410.135 540.686 410.383L522.969 420.783C522.436 420.259 521.705 419.936 520.9 419.936C519.269 419.936 517.947 421.258 517.947 422.889C517.947 424.403 519.087 425.65 520.555 425.821V442.591C519.087 442.761 517.947 444.009 517.947 445.523C517.947 447.154 519.269 448.475 520.9 448.475C521.911 448.475 522.804 447.967 523.336 447.191L540.707 457.954C540.626 458.225 540.582 458.511 540.582 458.808C540.582 460.439 541.903 461.761 543.534 461.761C545.164 461.761 546.486 460.439 546.486 458.808C546.486 458.527 546.447 458.256 546.374 457.998L564.272 447.259C564.809 447.996 565.679 448.475 566.66 448.475C568.291 448.475 569.613 447.154 569.613 445.523C569.613 444.095 568.598 442.903 567.251 442.63V425.782C568.598 425.508 569.613 424.317 569.613 422.889C569.613 421.258 568.291 419.936 566.66 419.936C565.887 419.936 565.182 420.234 564.656 420.721L546.393 410.34ZM545.615 411.697C545.824 411.49 546.002 411.251 546.141 410.989L564.201 421.255C564.039 421.498 563.913 421.766 563.828 422.052H552.307L545.615 411.697ZM543.878 412.536C544.312 412.485 544.716 412.341 545.071 412.124L551.487 422.052H543.878V412.536ZM542.039 412.149C542.384 412.352 542.773 412.487 543.19 412.536V422.052H535.841L542.039 412.149ZM540.948 411.028C541.092 411.289 541.274 411.526 541.488 411.731L535.029 422.052H523.732C523.655 421.793 523.545 421.549 523.405 421.326L540.948 411.028ZM523.798 423.453C523.833 423.271 523.852 423.082 523.852 422.889C523.852 422.839 523.851 422.79 523.848 422.741H534.597L531.694 427.38L523.798 423.453ZM522.924 425.038C523.199 424.778 523.425 424.466 523.585 424.117L531.327 427.967L527.99 433.298L522.924 425.038ZM521.244 425.821C521.65 425.774 522.03 425.645 522.368 425.45L527.582 433.95L522.043 442.8C521.793 442.695 521.524 442.623 521.244 442.591V425.821ZM523.243 443.727C523.072 443.504 522.87 443.306 522.643 443.14L527.984 434.606L531.162 439.788L523.243 443.727ZM523.793 444.933C523.75 444.719 523.683 444.514 523.597 444.32L531.524 440.378L534.318 444.933H523.793ZM523.657 446.58C523.772 446.281 523.839 445.958 523.85 445.621H534.74L541.51 456.659C541.306 456.852 541.129 457.073 540.986 457.316L523.657 446.58ZM543.19 455.876C542.784 455.923 542.403 456.052 542.065 456.247L535.548 445.621H543.19V455.876ZM545.045 456.271C544.696 456.063 544.301 455.925 543.878 455.876V445.621H551.79L545.045 456.271ZM546.105 457.356C545.966 457.111 545.794 456.888 545.593 456.693L552.605 445.621H563.71C563.722 445.988 563.801 446.338 563.934 446.659L546.105 457.356ZM564.01 444.221C563.9 444.444 563.818 444.682 563.767 444.933H553.041L556.011 440.243L564.01 444.221ZM565.054 443.045C564.803 443.209 564.578 443.409 564.387 443.639L556.382 439.658L559.591 434.591L565.054 443.045ZM566.562 442.572C566.252 442.582 565.955 442.64 565.676 442.739L559.997 433.95L565.332 425.526C565.704 425.714 566.121 425.825 566.562 425.839V442.572ZM564.022 424.216C564.203 424.574 564.454 424.89 564.757 425.146L559.585 433.313L556.215 428.098L564.022 424.216ZM563.712 422.741C563.709 422.79 563.708 422.839 563.708 422.889C563.708 423.121 563.735 423.347 563.786 423.564L555.839 427.516L552.752 422.741H563.712ZM546.331 434.66C546.432 434.363 546.486 434.045 546.486 433.714C546.486 433.461 546.455 433.216 546.395 432.982L555.594 428.407L559.179 433.954L555.762 439.35L546.331 434.66ZM543.878 436.646C544.788 436.541 545.571 436.022 546.036 435.282L555.391 439.935L552.226 444.933H543.878V436.646ZM541.225 435.553C541.698 436.147 542.396 436.554 543.19 436.646V444.933H535.126L532.143 440.07L541.225 435.553ZM540.859 434.966L531.782 439.48L528.392 433.954L531.946 428.275L540.773 432.665C540.649 432.991 540.582 433.344 540.582 433.714C540.582 434.161 540.681 434.586 540.859 434.966ZM543.19 430.781C542.318 430.883 541.562 431.363 541.092 432.054L532.314 427.688L535.41 422.741H543.19V430.781ZM546.146 432.337C545.702 431.496 544.864 430.896 543.878 430.781V422.741H551.932L555.218 427.825L546.146 432.337Z" fill="#4C4D9E"/>
<circle cx="38.7288" cy="348.937" r="29.0071" stroke="#4C4D9E" stroke-width="0.5"/>
<circle cx="38.4" cy="348.608" r="37.9" stroke="#4C4D9E"/>
<path d="M42.6235 331.52C42.6235 332.383 42.3929 333.191 41.9899 333.888H42.3531C46.9458 333.888 49.2422 333.888 50.6689 335.315C52.0957 336.742 52.0957 339.038 52.0957 343.631V343.994C52.7924 343.591 53.6012 343.36 54.464 343.36C57.0796 343.36 59.2 345.48 59.2 348.096C59.2 350.711 57.0796 352.832 54.464 352.832C53.6012 352.832 52.7924 352.601 52.0957 352.198V352.561C52.0957 357.154 52.0957 359.45 50.6689 360.877C49.2422 362.304 46.9458 362.304 42.3531 362.304H41.99C42.3929 363.001 42.6235 363.809 42.6235 364.672C42.6235 367.288 40.5032 369.408 37.8875 369.408C35.2719 369.408 33.1515 367.288 33.1515 364.672C33.1515 363.809 33.3822 363.001 33.7851 362.304H33.4223C28.8296 362.304 26.5332 362.304 25.1065 360.877C23.6808 359.452 23.6797 357.158 23.6797 352.572C24.2346 352.801 24.8424 352.926 25.4796 352.926C28.0952 352.926 30.2156 350.806 30.2156 348.19C30.2156 345.575 28.0952 343.454 25.4796 343.454C24.8424 343.454 24.2346 343.58 23.6797 343.808V343.631C23.6797 339.038 23.6797 336.742 25.1065 335.315C26.5332 333.888 28.8296 333.888 33.4223 333.888H33.7852C33.3822 333.191 33.1515 332.383 33.1515 331.52C33.1515 328.904 35.2719 326.784 37.8875 326.784C40.5032 326.784 42.6235 328.904 42.6235 331.52Z" fill="#4C4D9E"/>
</svg>
