<svg width="745" height="496" viewBox="0 0 745 496" fill="none" xmlns="http://www.w3.org/2000/svg">
<path d="M457.115 382.391L408.508 344.585L363.141 355.927L303.731 319.741L248.643 311.1L213.537 264.653L231.9 184.72L301.571 126.931L392.305 104.248L498.702 139.893L551.09 200.383L569.453 259.792L546.229 315.961H526.246L516.525 331.623L477.098 327.843L468.997 345.665L480.879 382.391H457.115Z" fill="#42438A"/>
<path d="M408.057 172.928H375.742V205.243H408.057V172.928Z" fill="white"/>
<path d="M464.226 316.051H443.793V336.484H464.226V316.051Z" fill="#E6E6E6"/>
<path d="M484.66 274.464H464.227V294.898H484.66V274.464Z" fill="white"/>
<path d="M368.406 258.262H347.973V278.695H368.406V258.262Z" fill="white"/>
<path d="M408.058 306.914H389.785V325.187H408.058V306.914Z" fill="white"/>
<path d="M362.691 192.911H344.418V211.184H362.691V192.911Z" fill="#E6E6E6"/>
<path d="M460.468 224.169H447.551V237.086H460.468V224.169Z" fill="white"/>
<path d="M275.759 244.163H262.842V257.08H275.759V244.163Z" fill="white"/>
<path d="M369.149 234.768H356.232V247.685H369.149V234.768Z" fill="white"/>
<path d="M314.036 234.768H301.119V247.685H314.036V234.768Z" fill="#E6E6E6"/>
<path d="M352.44 171.038H339.523V183.955H352.44V171.038Z" fill="white"/>
<path d="M414.517 125.716H401.6V138.633H414.517V125.716Z" fill="white"/>
<path d="M499.827 187.308H486.91V200.225H499.827V187.308Z" fill="#E6E6E6"/>
<path d="M324.254 301.693H310.752V315.196H324.254V301.693Z" fill="white"/>
<path d="M434.07 184.405H424.709V193.767H434.07V184.405Z" fill="#E6E6E6"/>
<path d="M424.707 150.571H417.799V157.48H424.707V150.571Z" fill="white"/>
<path d="M285.976 191.831H265.543V212.265H285.976V191.831Z" fill="#E6E6E6"/>
<path d="M447.549 247.685H415.234V280H447.549V247.685Z" stroke="white" stroke-width="1.5" stroke-miterlimit="10"/>
<path d="M466.406 166.155H441.607V190.953H466.406V166.155Z" stroke="white" stroke-width="1.5" stroke-miterlimit="10"/>
<path d="M382.043 141.626H357.244V166.425H382.043V141.626Z" stroke="white" stroke-width="1.5" stroke-miterlimit="10"/>
<path d="M316.221 156.208H291.422V181.007H316.221V156.208Z" stroke="white" stroke-width="1.5" stroke-miterlimit="10"/>
<path d="M524.623 218.228H499.824V243.027H524.623V218.228Z" stroke="white" stroke-width="1.5" stroke-miterlimit="10"/>
<path d="M303.82 258.262H283.387V278.695H303.82V258.262Z" stroke="white" stroke-width="1.5" stroke-miterlimit="10"/>
<path d="M406.119 226.622H390.592V242.149H406.119V226.622Z" stroke="white" stroke-width="1.5" stroke-miterlimit="10"/>
<path d="M388.703 280H379.342V289.361H388.703V280Z" stroke="white" stroke-width="1.5" stroke-miterlimit="10"/>
<path d="M333.615 221.941H324.254V231.302H333.615V221.941Z" stroke="white" stroke-width="1.5" stroke-miterlimit="10"/>
<path d="M454.01 190.029V226.622" stroke="white" stroke-width="1.5" stroke-miterlimit="10"/>
<path d="M509.819 154.025H424.711" stroke="white" stroke-width="1.5" stroke-miterlimit="10"/>
<path d="M454.01 166.401V154.025" stroke="white" stroke-width="1.5" stroke-miterlimit="10"/>
<path d="M429.391 154.025V186.091" stroke="white" stroke-width="1.5" stroke-miterlimit="10"/>
<path d="M544.777 193.766H495.551" stroke="white" stroke-width="1.5" stroke-miterlimit="10"/>
<path d="M460.469 231.302H499.827" stroke="white" stroke-width="1.5" stroke-miterlimit="10"/>
<path d="M512.227 194.036V218.228" stroke="white" stroke-width="1.5" stroke-miterlimit="10"/>
<path d="M367.82 268.478H415.235" stroke="white" stroke-width="1.5" stroke-miterlimit="10"/>
<path d="M398.359 243.027V306.914" stroke="white" stroke-width="1.5" stroke-miterlimit="10"/>
<path d="M324.254 308.444H358.189V276.872" stroke="white" stroke-width="1.5" stroke-miterlimit="10"/>
<path d="M303.82 125.716V156.208" stroke="white" stroke-width="1.5" stroke-miterlimit="10"/>
<path d="M369.643 166.425V177.497H352.439" stroke="white" stroke-width="1.5" stroke-miterlimit="10"/>
<path d="M314.037 242.149H356.231" stroke="white" stroke-width="1.5" stroke-miterlimit="10"/>
<path d="M328.934 231.302V241.226" stroke="white" stroke-width="1.5" stroke-miterlimit="10"/>
<path d="M401.599 132.174H391.9V172.928" stroke="white" stroke-width="1.5" stroke-miterlimit="10"/>
<path d="M217.43 247.685H262.842" stroke="white" stroke-width="1.5" stroke-miterlimit="10"/>
<path d="M454.01 336.484V379.972" stroke="white" stroke-width="1.5" stroke-miterlimit="10"/>
<path d="M227.916 202.048H265.542" stroke="white" stroke-width="1.5" stroke-miterlimit="10"/>
<path d="M285.975 202.048H303.82V181.007" stroke="white" stroke-width="1.5" stroke-miterlimit="10"/>
<path d="M303.82 268.478H345.981" stroke="white" stroke-width="1.5" stroke-miterlimit="10"/>
<path d="M484.658 284.681H512.225V243.319" stroke="white" stroke-width="1.5" stroke-miterlimit="10"/>
<path d="M571.826 191.314H623.573L636.94 168.225H735.371" stroke="#42438A" stroke-width="1.5" stroke-miterlimit="10"/>
<path d="M739.33 172.186C741.517 172.186 743.29 170.412 743.29 168.225C743.29 166.038 741.517 164.264 739.33 164.264C737.142 164.264 735.369 166.038 735.369 168.225C735.369 170.412 737.142 172.186 739.33 172.186Z" stroke="#42438A" stroke-width="1.5" stroke-miterlimit="10"/>
<path d="M563.004 179.77H612.635L626.003 156.681H685.547" stroke="#42438A" stroke-width="1.5" stroke-miterlimit="10"/>
<path d="M689.508 160.641C691.695 160.641 693.468 158.868 693.468 156.681C693.468 154.493 691.695 152.72 689.508 152.72C687.32 152.72 685.547 154.493 685.547 156.681C685.547 158.868 687.32 160.641 689.508 160.641Z" stroke="#42438A" stroke-width="1.5" stroke-miterlimit="10"/>
<path d="M550.234 167.617H574.966" stroke="#42438A" stroke-width="1.5" stroke-miterlimit="10"/>
<path d="M578.925 171.578C581.113 171.578 582.886 169.805 582.886 167.617C582.886 165.43 581.113 163.657 578.925 163.657C576.738 163.657 574.965 165.43 574.965 167.617C574.965 169.805 576.738 171.578 578.925 171.578Z" stroke="#42438A" stroke-width="1.5" stroke-miterlimit="10"/>
<path d="M715.388 179.77H715.118H646.662L633.295 202.858H575.404" stroke="#42438A" stroke-width="1.5" stroke-miterlimit="10"/>
<path d="M719.078 183.73C721.265 183.73 723.038 181.957 723.038 179.769C723.038 177.582 721.265 175.809 719.078 175.809C716.89 175.809 715.117 177.582 715.117 179.769C715.117 181.957 716.89 183.73 719.078 183.73Z" stroke="#42438A" stroke-width="1.5" stroke-miterlimit="10"/>
<path d="M709.625 307.679C711.812 307.679 713.585 305.906 713.585 303.719C713.585 301.531 711.812 299.758 709.625 299.758C707.437 299.758 705.664 301.531 705.664 303.719C705.664 305.906 707.437 307.679 709.625 307.679Z" stroke="#42438A" stroke-width="1.5" stroke-miterlimit="10"/>
<path d="M583.449 284.816H629.199L641.621 303.719H705.666" stroke="#42438A" stroke-width="1.5" stroke-miterlimit="10"/>
<path d="M689.508 338.149C691.695 338.149 693.468 336.376 693.468 334.188C693.468 332.001 691.695 330.228 689.508 330.228C687.32 330.228 685.547 332.001 685.547 334.188C685.547 336.376 687.32 338.149 689.508 338.149Z" stroke="#42438A" stroke-width="1.5" stroke-miterlimit="10"/>
<path d="M572.623 311.01H614.03L626.451 334.008L685.546 334.188" stroke="#42438A" stroke-width="1.5" stroke-miterlimit="10"/>
<path d="M739.33 324.422C741.517 324.422 743.29 322.648 743.29 320.461C743.29 318.274 741.517 316.5 739.33 316.5C737.142 316.5 735.369 318.274 735.369 320.461C735.369 322.648 737.142 324.422 739.33 324.422Z" stroke="#42438A" stroke-width="1.5" stroke-miterlimit="10"/>
<path d="M578.543 296.698H619.252L634.374 320.461H735.37" stroke="#42438A" stroke-width="1.5" stroke-miterlimit="10"/>
<path d="M589.367 334.324C591.554 334.324 593.327 332.55 593.327 330.363C593.327 328.176 591.554 326.402 589.367 326.402C587.18 326.402 585.406 328.176 585.406 330.363C585.406 332.55 587.18 334.324 589.367 334.324Z" stroke="#42438A" stroke-width="1.5" stroke-miterlimit="10"/>
<path d="M585.406 330.678L564.512 330.633" stroke="#42438A" stroke-width="1.5" stroke-miterlimit="10"/>
<path d="M196.724 279.741H171.869" stroke="#42438A" stroke-width="1.5" stroke-miterlimit="10"/>
<path d="M7.68359 279.741H113L129.743 253.817H190.772" stroke="#42438A" stroke-width="1.5" stroke-miterlimit="10"/>
<path d="M38.4707 264.079H110.302L122.184 244.377H193.475" stroke="#42438A" stroke-width="1.5" stroke-miterlimit="10"/>
<path d="M57.9121 291.083H121.102L134.604 266.779H189.952" stroke="#42438A" stroke-width="1.5" stroke-miterlimit="10"/>
<path d="M38.4707 208.45H111.922L123.804 228.433H197.132" stroke="#42438A" stroke-width="1.5" stroke-miterlimit="10"/>
<path d="M171.869 191.167H203.599" stroke="#42438A" stroke-width="1.5" stroke-miterlimit="10"/>
<path d="M60.6133 181.446H121.103L132.985 203.589H202.115" stroke="#42438A" stroke-width="1.5" stroke-miterlimit="10"/>
<path d="M11.4648 192.517H113.541L128.663 216.011H198.874" stroke="#42438A" stroke-width="1.5" stroke-miterlimit="10"/>
<path d="M57.0332 184.787C58.8788 184.787 60.375 183.291 60.375 181.446C60.375 179.6 58.8788 178.104 57.0332 178.104C55.1876 178.104 53.6914 179.6 53.6914 181.446C53.6914 183.291 55.1876 184.787 57.0332 184.787Z" stroke="#42438A" stroke-width="1.5" stroke-miterlimit="10"/>
<path d="M8.62888 195.86C10.4745 195.86 11.9707 194.363 11.9707 192.518C11.9707 190.672 10.4745 189.176 8.62888 189.176C6.78327 189.176 5.28711 190.672 5.28711 192.518C5.28711 194.363 6.78327 195.86 8.62888 195.86Z" stroke="#42438A" stroke-width="1.5" stroke-miterlimit="10"/>
<path d="M34.959 211.792C36.8046 211.792 38.3007 210.296 38.3007 208.45C38.3007 206.604 36.8046 205.108 34.959 205.108C33.1134 205.108 31.6172 206.604 31.6172 208.45C31.6172 210.296 33.1134 211.792 34.959 211.792Z" stroke="#42438A" stroke-width="1.5" stroke-miterlimit="10"/>
<path d="M168.527 194.509C170.373 194.509 171.869 193.013 171.869 191.167C171.869 189.322 170.373 187.826 168.527 187.826C166.682 187.826 165.186 189.322 165.186 191.167C165.186 193.013 166.682 194.509 168.527 194.509Z" stroke="#42438A" stroke-width="1.5" stroke-miterlimit="10"/>
<path d="M168.527 283.083C170.373 283.083 171.869 281.587 171.869 279.741C171.869 277.896 170.373 276.4 168.527 276.4C166.682 276.4 165.186 277.896 165.186 279.741C165.186 281.587 166.682 283.083 168.527 283.083Z" stroke="#42438A" stroke-width="1.5" stroke-miterlimit="10"/>
<path d="M54.5703 294.425C56.4159 294.425 57.9121 292.929 57.9121 291.083C57.9121 289.238 56.4159 287.742 54.5703 287.742C52.7247 287.742 51.2285 289.238 51.2285 291.083C51.2285 292.929 52.7247 294.425 54.5703 294.425Z" stroke="#42438A" stroke-width="1.5" stroke-miterlimit="10"/>
<path d="M4.34178 283.083C6.18739 283.083 7.68355 281.587 7.68355 279.741C7.68355 277.896 6.18739 276.4 4.34178 276.4C2.49616 276.4 1 277.896 1 279.741C1 281.587 2.49616 283.083 4.34178 283.083Z" stroke="#42438A" stroke-width="1.5" stroke-miterlimit="10"/>
<path d="M35.125 267.421C36.9706 267.421 38.4668 265.925 38.4668 264.079C38.4668 262.233 36.9706 260.737 35.125 260.737C33.2794 260.737 31.7832 262.233 31.7832 264.079C31.7832 265.925 33.2794 267.421 35.125 267.421Z" stroke="#42438A" stroke-width="1.5" stroke-miterlimit="10"/>
<path d="M138.271 303.719C141.374 317.228 145.624 330.448 150.975 343.235" stroke="#42438A" stroke-width="1.5" stroke-miterlimit="10"/>
<path d="M203.127 74.4526L204.252 73.3274C212.968 64.6112 222.313 56.5481 232.213 49.2036C274.701 17.8918 326.095 1 378.874 1C431.653 1 483.047 17.8918 525.535 49.2036" stroke="#42438A" stroke-width="1.5" stroke-miterlimit="10"/>
<path d="M177.912 391.449C185.844 402.51 194.669 412.904 204.298 422.526C227.178 445.528 254.393 463.764 284.367 476.179C314.342 488.594 346.481 494.941 378.925 494.852C398 494.867 417.013 492.685 435.589 488.349" stroke="#42438A" stroke-width="1.5" stroke-miterlimit="10"/>
<path d="M604.927 372.984C584.953 408.833 556.813 439.47 522.789 462.413" stroke="#42438A" stroke-width="1.5" stroke-miterlimit="10"/>
<path d="M588.342 116.849C593.393 124.878 597.969 133.196 602.046 141.761" stroke="#42438A" stroke-width="1.5" stroke-miterlimit="10"/>
<path d="M185.035 159.122C201.395 123.422 227.294 92.9315 259.879 71.0124C292.463 49.0933 330.466 36.5967 369.7 34.9001C408.934 33.2035 447.875 42.3727 482.23 61.3971C516.584 80.4215 545.019 108.562 564.4 142.717" stroke="#42438A" stroke-width="1.5" stroke-linecap="round" stroke-linejoin="round"/>
<path d="M180.568 326.211C195.226 363.304 219.992 395.543 252.052 419.267C284.113 442.991 322.184 457.25 361.941 460.423C401.698 463.597 441.549 455.558 476.967 437.22C512.385 418.881 541.951 390.979 562.307 356.681" stroke="#42438A" stroke-width="1.5" stroke-linecap="round" stroke-linejoin="round"/>
<path d="M189.85 368.743C214.624 407.505 250.707 437.722 293.218 455.305C335.729 472.888 382.615 476.987 427.532 467.049" stroke="#42438A" stroke-width="2" stroke-miterlimit="10"/>
<path d="M450.699 460.58C489.297 447.476 523.616 424.143 549.996 393.069" stroke="#42438A" stroke-width="2" stroke-miterlimit="10"/>
<path d="M600.73 213.412C603.81 233.446 604.188 253.801 601.856 273.935" stroke="#42438A" stroke-width="2" stroke-miterlimit="10"/>
<path d="M170.318 330.734C166.418 320.961 163.222 310.921 160.754 300.692" stroke="#42438A" stroke-width="2" stroke-miterlimit="10"/>
<path d="M265.373 54.3234C306.244 30.314 353.676 19.8845 400.848 24.5346C448.021 29.1848 492.503 48.675 527.899 80.2025" stroke="#42438A" stroke-width="2" stroke-miterlimit="10"/>
<path d="M571.455 132.636C576.571 141.154 581.116 150.002 585.058 159.122" stroke="#42438A" stroke-width="2" stroke-miterlimit="10"/>
<path d="M170.801 163.848C185.487 127.716 209.29 96.0079 239.887 71.8199" stroke="#42438A" stroke-width="2" stroke-miterlimit="10"/>
<path d="M568 368.743C571.286 363.612 574.368 358.361 577.249 352.99" stroke="#42438A" stroke-width="2" stroke-miterlimit="10"/>
</svg>
