<svg width="323" height="323" viewBox="0 0 323 323" fill="none" xmlns="http://www.w3.org/2000/svg">
<rect x="157.989" width="7.02176" height="21.0653" fill="#4C4D9E"/>
<rect x="157.988" y="35.1088" width="7.02176" height="21.0653" fill="#4C4D9E"/>
<rect x="157.988" y="266.827" width="7.02176" height="21.0653" fill="#4C4D9E"/>
<rect x="157.987" y="301.935" width="7.02176" height="21.0653" fill="#4C4D9E"/>
<rect y="165.01" width="7.02176" height="21.0653" transform="rotate(-90 0 165.01)" fill="#4C4D9E"/>
<rect x="35.1094" y="165.012" width="7.02176" height="21.0653" transform="rotate(-90 35.1094 165.012)" fill="#4C4D9E"/>
<rect x="266.827" y="165.012" width="7.02176" height="21.0653" transform="rotate(-90 266.827 165.012)" fill="#4C4D9E"/>
<rect x="301.935" y="165.013" width="7.02176" height="21.0653" transform="rotate(-90 301.935 165.013)" fill="#4C4D9E"/>
<rect x="273.215" y="44.8188" width="7.02176" height="21.0653" transform="rotate(45 273.215 44.8188)" fill="#4C4D9E"/>
<rect x="248.391" y="69.6454" width="7.02176" height="21.0653" transform="rotate(45 248.391 69.6454)" fill="#4C4D9E"/>
<rect x="84.542" y="233.491" width="7.02176" height="21.0653" transform="rotate(45 84.542 233.491)" fill="#4C4D9E"/>
<rect x="59.7178" y="258.316" width="7.02176" height="21.0653" transform="rotate(45 59.7178 258.316)" fill="#4C4D9E"/>
<rect x="44.8184" y="49.7832" width="7.02176" height="21.0653" transform="rotate(-45 44.8184 49.7832)" fill="#4C4D9E"/>
<rect x="69.6465" y="74.608" width="7.02176" height="21.0653" transform="rotate(-45 69.6465 74.608)" fill="#4C4D9E"/>
<rect x="233.493" y="238.46" width="7.02176" height="21.0653" transform="rotate(-45 233.493 238.46)" fill="#4C4D9E"/>
<rect x="258.317" y="263.284" width="7.02176" height="21.0653" transform="rotate(-45 258.317 263.284)" fill="#4C4D9E"/>
<path d="M121.388 98.3047H121.382C102.244 98.3047 87.1723 109.419 80.0297 128.793C63.7729 172.918 122.798 211.591 148 228.101C152.059 230.758 156.657 233.771 157.561 234.712L161.083 238.74L165.007 235.111C165.659 234.538 168.672 232.609 171.585 230.744C195.754 215.273 259.944 174.173 242.932 128.737C235.725 109.478 220.628 98.4311 201.526 98.4311C185.393 98.4311 169.434 106.192 161.325 116.839C152.949 106.029 137.193 98.3047 121.388 98.3047Z" fill="#4C4D9E"/>
</svg>
