<svg width="515" height="309" viewBox="0 0 515 309" fill="none" xmlns="http://www.w3.org/2000/svg">
<path d="M65.2188 261.49C65.2188 264.916 62.4422 267.692 59.0171 267.692C55.592 267.692 52.8154 264.916 52.8154 261.49C52.8154 258.065 55.592 255.289 59.0171 255.289C62.4422 255.289 65.2188 258.065 65.2188 261.49Z" fill="#CECFD1"/>
<path d="M48.1641 278.545C48.1641 273.408 52.329 269.243 57.4667 269.243H60.5675C65.7052 269.243 69.8701 273.408 69.8701 278.545C69.8701 281.628 67.3712 284.127 64.2886 284.127H53.7456C50.663 284.127 48.1641 281.628 48.1641 278.545Z" fill="#CECFD1"/>
<rect x="37.8457" y="248.58" width="42.2571" height="42.2571" stroke="#CECFD1"/>
<rect x="0.5" y="0.5" width="71.0951" height="71.0951" stroke="#52565D"/>
<path fill-rule="evenodd" clip-rule="evenodd" d="M58.7795 37.3154L56.2455 36.6431C55.4181 36.4363 54.901 35.6606 54.8493 34.8331C54.7975 33.954 54.6941 33.0749 54.4872 32.2474C54.3321 31.42 54.6424 30.5409 55.3664 30.1272L57.6418 28.8343C58.5209 28.3172 58.8312 27.1795 58.3141 26.3003L55.625 21.6461C55.1078 20.7669 53.9701 20.4567 53.091 20.9738L50.8156 22.2666C50.0916 22.6804 49.1607 22.5769 48.5401 22.0081C47.8679 21.4392 47.1956 20.9221 46.4716 20.4567C45.7476 19.9912 45.3856 19.1121 45.5925 18.3364L46.2647 15.7507C46.5233 14.7681 45.9545 13.7338 44.9719 13.4753L39.7488 12.079C38.7662 11.8204 37.7319 12.3893 37.4734 13.3719L36.7494 15.9575C36.5425 16.785 35.7668 17.3021 34.9394 17.3538C34.0602 17.4055 33.1811 17.509 32.302 17.7158C31.4745 17.871 30.5954 17.5607 30.1817 16.8367L28.8371 14.5096C28.32 13.6304 27.1823 13.3201 26.3031 13.8373L21.6489 16.5264C20.7698 17.0435 20.4595 18.1812 20.9766 19.0604L22.3729 21.4392C22.7866 22.1632 22.6832 23.0941 22.1143 23.7146C21.5455 24.3352 21.0283 25.0075 20.5629 25.7315C20.0975 26.4555 19.2701 26.8175 18.4426 26.5589L15.7535 25.8349C14.7709 25.5763 13.7367 26.1452 13.4781 27.1278L12.0818 32.3509C11.8232 33.3334 12.3921 34.3677 13.3747 34.6263L16.0121 35.3503C16.8395 35.5571 17.4084 36.3328 17.4084 37.1603C17.4601 38.0394 17.5635 38.8668 17.7186 39.746C17.8738 40.5734 17.5635 41.4525 16.7878 41.8662L14.4089 43.2625C13.5298 43.7796 13.2195 44.9173 13.7367 45.7965L16.4258 50.4507C16.9429 51.3299 18.0806 51.6402 18.9598 51.123L21.2869 49.7785C22.0109 49.3647 22.9417 49.5199 23.5623 50.037C24.2346 50.6059 24.9069 51.1747 25.6309 51.6402C26.3549 52.1056 26.7169 52.933 26.51 53.7604L25.8377 56.3461C25.5792 57.3287 26.148 58.363 27.1306 58.6215L32.3537 60.0178C33.3363 60.2764 34.3705 59.7075 34.6291 58.725L35.3014 56.1393C35.5082 55.3118 36.284 54.743 37.1114 54.743C37.9905 54.6913 38.8179 54.5879 39.6971 54.4327C40.5245 54.2776 41.4036 54.5879 41.8173 55.3636L43.1102 57.639C43.6273 58.5181 44.765 58.8284 45.6442 58.3113L50.2984 55.6221C51.1776 55.105 51.4878 53.9673 50.9707 53.0882L49.6779 50.8127C49.2641 50.0887 49.4193 49.1579 49.9364 48.5373C50.557 47.865 51.0741 47.141 51.5913 46.3653C52.0567 45.6413 52.8841 45.2794 53.7115 45.4862L56.1938 46.1585C57.1764 46.417 58.2107 45.8482 58.4692 44.8656L59.7081 40.2312C59.8128 39.8398 59.9957 39.465 60.0419 39.0624C60.1356 38.2456 59.5767 37.5252 58.7795 37.3154ZM41.5588 45.3828C36.3874 48.3822 29.768 46.6239 26.7686 41.4008C23.7692 36.2294 25.5274 29.61 30.7506 26.6106C35.9219 23.6112 42.5413 25.3695 45.5407 30.5926C48.4884 35.764 46.7302 42.3834 41.5588 45.3828Z" fill="#52565D"/>
<rect x="152.549" y="208.567" width="99.9331" height="99.9331" stroke="white"/>
<path fill-rule="evenodd" clip-rule="evenodd" d="M234.341 260.31L230.793 259.369C229.635 259.079 228.911 257.993 228.839 256.835C228.766 255.604 228.621 254.373 228.332 253.215C228.115 252.056 228.549 250.826 229.563 250.246L232.748 248.436C233.979 247.712 234.413 246.12 233.689 244.889L229.925 238.373C229.201 237.142 227.608 236.708 226.377 237.432L223.191 239.242C222.178 239.821 220.875 239.676 220.006 238.88C219.065 238.083 218.123 237.359 217.11 236.708C216.096 236.056 215.589 234.825 215.879 233.739L216.82 230.119C217.182 228.744 216.386 227.296 215.01 226.934L207.698 224.979C206.322 224.617 204.874 225.413 204.512 226.789L203.499 230.409C203.209 231.567 202.123 232.291 200.965 232.364C199.734 232.436 198.503 232.581 197.272 232.871C196.114 233.088 194.883 232.653 194.304 231.64L192.422 228.382C191.698 227.151 190.105 226.717 188.874 227.441L182.358 231.205C181.127 231.929 180.693 233.522 181.417 234.753L183.372 238.083C183.951 239.097 183.806 240.4 183.01 241.269C182.213 242.138 181.489 243.079 180.838 244.092C180.186 245.106 179.028 245.613 177.869 245.251L174.105 244.237C172.729 243.875 171.281 244.672 170.919 246.047L168.964 253.36C168.602 254.735 169.399 256.183 170.774 256.545L174.467 257.559C175.625 257.848 176.421 258.934 176.421 260.093C176.494 261.324 176.639 262.482 176.856 263.713C177.073 264.871 176.639 266.102 175.553 266.681L172.222 268.636C170.991 269.36 170.557 270.953 171.281 272.183L175.046 278.699C175.77 279.93 177.363 280.365 178.593 279.641L181.851 277.758C182.865 277.179 184.168 277.396 185.037 278.12C185.978 278.917 186.919 279.713 187.933 280.365C188.946 281.016 189.453 282.175 189.164 283.333L188.222 286.953C187.86 288.329 188.657 289.777 190.032 290.139L197.345 292.093C198.72 292.455 200.168 291.659 200.53 290.283L201.472 286.663C201.761 285.505 202.847 284.709 204.006 284.709C205.236 284.636 206.395 284.491 207.626 284.274C208.784 284.057 210.015 284.491 210.594 285.577L212.404 288.763C213.128 289.994 214.721 290.428 215.951 289.704L222.467 285.939C223.698 285.215 224.133 283.623 223.409 282.392L221.599 279.206C221.019 278.193 221.237 276.889 221.961 276.021C222.829 275.079 223.553 274.066 224.277 272.98C224.929 271.966 226.087 271.459 227.246 271.749L230.721 272.69C232.097 273.052 233.545 272.256 233.907 270.88L235.704 264.157C235.809 263.765 235.979 263.391 236.068 262.996C236.347 261.756 235.535 260.624 234.341 260.31ZM210.232 271.604C202.992 275.803 193.725 273.342 189.526 266.029C185.326 258.79 187.788 249.522 195.1 245.323C202.34 241.124 211.607 243.586 215.807 250.898C219.933 258.138 217.472 267.405 210.232 271.604Z" fill="white"/>
<circle cx="400.129" cy="133.376" r="106.701" fill="#222831"/>
<circle cx="400.128" cy="133.376" r="85.3608" fill="#393E46"/>
<circle cx="400.128" cy="133.376" r="74.6907" fill="#595E65"/>
<circle cx="378.789" cy="98.6984" r="26.6752" fill="white"/>
<circle cx="413.466" cy="117.371" r="5.33505" fill="white"/>
<circle cx="400.128" cy="133.376" r="114.704" fill="#CECFD1"/>
<circle cx="400.129" cy="133.376" r="106.701" fill="#222831"/>
<circle cx="400.128" cy="133.376" r="85.3608" fill="#393E46"/>
<circle cx="400.128" cy="133.376" r="74.6907" fill="#52565D"/>
<circle cx="378.789" cy="98.6984" r="26.6752" fill="white"/>
<circle cx="413.466" cy="117.371" r="5.33505" fill="white"/>
<path fill-rule="evenodd" clip-rule="evenodd" d="M161.584 8.00256H139.711H138.711V9.00256V24.279H139.711V9.00256H161.584V8.00256ZM203.937 9.00256V8.00256H226.654H227.654V9.00256V24.279H226.654V9.00256H203.937ZM203.937 68.0418H226.654V53.3453H227.654V68.0418V69.0418H226.654H203.937V68.0418ZM139.711 53.3453V68.0418H161.584V69.0418H139.711H138.711V68.0418V53.3453H139.711Z" fill="#E6E7E8"/>
<rect x="153.205" y="18.5432" width="59.2952" height="39.5302" rx="2" fill="#E6E7E8"/>
<path d="M203.181 52.9361H162.531C161.671 52.9361 161.212 51.9225 161.78 51.2763L173.851 37.5279C174.232 37.0947 174.899 37.072 175.308 37.4782L179.011 41.1569C179.445 41.5886 180.163 41.5317 180.524 41.0368L188.302 30.3726C188.711 29.8116 189.554 29.8282 189.94 30.4048L204.012 51.379C204.457 52.0433 203.981 52.9361 203.181 52.9361Z" fill="#52565D"/>
<circle cx="165.856" cy="29.218" r="3.95302" fill="#52565D"/>
<path d="M113.785 127.707C113.785 133.416 109.157 138.043 103.449 138.043C97.7402 138.043 93.1125 133.416 93.1125 127.707C93.1125 121.999 97.7402 117.371 103.449 117.371C109.157 117.371 113.785 121.999 113.785 127.707Z" fill="#83868B"/>
<path d="M85.3604 156.132C85.3604 147.569 92.3019 140.628 100.865 140.628H106.033C114.596 140.628 121.537 147.569 121.537 156.132C121.537 161.27 117.372 165.434 112.235 165.434H94.6629C89.5253 165.434 85.3604 161.27 85.3604 156.132Z" fill="#83868B"/>
<path fill-rule="evenodd" clip-rule="evenodd" d="M81.5579 112.036H59.6855H58.6855V113.036V128.312H59.6855V113.036H81.5579V112.036ZM123.912 113.036V112.036H146.628H147.628V113.036V128.312H146.628V113.036H123.912ZM123.912 172.075H146.628V157.379H147.628V172.075V173.075H146.628H123.912V172.075ZM59.6855 157.379V172.075H81.5579V173.075H59.6855H58.6855V172.075V157.379H59.6855Z" fill="#83868B"/>
<path d="M406.798 246.746L384.124 274.755H254.749" stroke="#B5B7BA"/>
<path d="M286.759 148.048H149.382" stroke="#B5B7BA"/>
<path d="M285.426 121.372H234.743L162.72 72.0231" stroke="#B5B7BA"/>
</svg>
