<svg width="1070" height="509" viewBox="0 0 1070 509" fill="none" xmlns="http://www.w3.org/2000/svg">
<rect width="20.4967" height="19.4804" transform="matrix(1 0 0 -1 341 101.48)" fill="#4C4D9E" fill-opacity="0.05"/>
<rect width="20.4967" height="19.4804" transform="matrix(1 0 0 -1 531.342 508.231)" fill="#4C4D9E" fill-opacity="0.05"/>
<rect width="20.4967" height="19.4804" transform="matrix(1 0 0 -1 1041 190.48)" fill="#4C4D9E" fill-opacity="0.05"/>
<rect width="14.3477" height="13.6363" transform="matrix(1 0 0 -1 125 96.6364)" fill="#4C4D9E" fill-opacity="0.05"/>
<rect width="14.3477" height="13.6363" transform="matrix(1 0 0 -1 54 150.636)" fill="#4C4D9E" fill-opacity="0.05"/>
<rect width="30.745" height="7.79217" transform="matrix(1 0 0 -1 1039 374.792)" fill="#4C4D9E" fill-opacity="0.05"/>
<rect width="29.2206" height="8.19868" transform="matrix(0 1 1 0 0 0)" fill="#4C4D9E" fill-opacity="0.05"/>
<rect width="14.3477" height="13.6363" transform="matrix(1 0 0 -1 316 473.636)" fill="#4C4D9E" fill-opacity="0.05"/>
<rect width="12.298" height="11.6883" transform="matrix(1 0 0 -1 355.07 19.2727)" fill="#4C4D9E" fill-opacity="0.05"/>
<rect width="20.4967" height="19.4804" transform="matrix(1 0 0 -1 617 40.4805)" fill="#4C4D9E" fill-opacity="0.05"/>
<rect width="20.4967" height="19.4804" transform="matrix(1 0 0 -1 627 170.48)" fill="#4C4D9E" fill-opacity="0.05"/>
<rect width="30.745" height="29.2206" transform="matrix(1 0 0 -1 667 415.221)" fill="#4C4D9E" fill-opacity="0.05"/>
<rect width="30.745" height="29.2206" transform="matrix(1 0 0 -1 1027 75.2207)" fill="#4C4D9E" fill-opacity="0.15"/>
</svg>
